<svg width="12" height="14" viewBox="0 0 12 14" fill="none" xmlns="http://www.w3.org/2000/svg">
<path d="M11.4917 6.05168C11.4928 6.74695 11.3509 7.43557 11.074 8.07798C10.7971 8.72038 10.3907 9.30389 9.87827 9.79497L9.73659 9.92271C9.01373 10.5697 7.31933 12.1665 6.47792 12.9634C6.34537 13.0889 6.16672 13.1593 5.98059 13.1593C5.79446 13.1593 5.61581 13.0889 5.48326 12.9634C4.63896 12.1665 2.94746 10.5697 2.2217 9.92271C1.55299 9.32373 1.04998 8.57437 0.757999 7.74216C0.466014 6.90995 0.394232 6.02103 0.549123 5.15554C0.704015 4.29004 1.08071 3.47516 1.64526 2.78433C2.20982 2.0935 2.94448 1.54844 3.78305 1.19826C4.62162 0.848085 5.53774 0.703802 6.44885 0.778418C7.35995 0.853033 8.2374 1.1442 9.00213 1.62568C9.76685 2.10716 10.3948 2.76381 10.8294 3.53647C11.264 4.30912 11.4916 5.17349 11.4917 6.05168Z" fill="#00AFF0"/>
</svg>
