<svg width="80" height="111" viewBox="0 0 80 111" fill="none" xmlns="http://www.w3.org/2000/svg">
<path d="M40.6523 0C31.4647 9.86234 16.8039 17.9454 1.11919 21.3892C1.11919 22.4391 1.08847 28.2571 0.968332 55.0695C0.809082 90.8385 34.774 108.318 40.0516 111C45.1616 108.643 79.5582 91.1913 79.7245 55.4237C79.8446 28.6113 79.8642 22.7933 79.8753 21.7433C64.2088 18.1582 49.7519 9.94494 40.6523 0Z" fill="white"/>
<path d="M40.57 3.87915C31.0988 12.5866 17.9775 19.4293 3.55138 23.1601L3.41168 55.0639C3.34603 69.6622 9.1391 82.8675 20.6121 94.3159C28.1555 101.839 36.0845 106.503 40.1076 108.595L40.658 108.315V3.95335L40.57 3.87915Z" fill="#80B2FF"/>
<path d="M40.6523 3.95337V108.318C44.8431 106.135 52.4424 101.626 59.726 94.4909C71.3052 83.1517 77.21 69.9926 77.2757 55.3944L77.4154 23.4905C63.0633 19.6435 50.0467 12.7154 40.6523 3.95337Z" fill="#4D93FF"/>
<path d="M22.4182 45.5278L22.2478 72.4494C22.2283 75.4452 58.92 75.6874 58.9396 72.6902L59.117 45.7686L22.4182 45.5278Z" fill="#0046B3"/>
<path d="M55.9138 43.8282L52.1994 43.8044L52.212 41.9915C52.2539 35.7101 47.1649 30.5669 40.8689 30.5249C34.5729 30.4829 29.4141 35.5646 29.3736 41.8417L29.3624 43.6616L25.6479 43.6364L25.6605 41.8235C25.715 33.4997 32.5488 26.7717 40.8871 26.8277C49.2253 26.8837 55.9739 33.6985 55.9208 42.0223L55.9138 43.8282Z" fill="#0046B3"/>
</svg>
