<svg width="82" height="111" viewBox="0 0 82 111" fill="none" xmlns="http://www.w3.org/2000/svg">
<g clip-path="url(#clip0_21_949)">
<path d="M0 19.5454C0 19.4054 0 19.3438 0 19.3298C0.0013801 19.3564 0 19.5454 0 19.5454Z" fill="#D9FFFF"/>
<path d="M0 19.5454C0 19.4054 0 19.3438 0 19.3298C0.0013801 19.3564 0 19.5454 0 19.5454Z" fill="#D9FFFF"/>
<path d="M41.1518 0C32.0735 9.86234 17.5908 17.9454 2.09499 21.3892C2.09499 22.4391 2.06464 28.2571 1.94733 55.0695C1.79 90.8385 35.3457 108.318 40.5584 111C45.6068 108.643 79.589 91.1913 79.7532 55.4237C79.8719 28.6113 79.8912 22.7933 79.9023 21.7433C64.4231 18.1582 50.1404 9.94494 41.1518 0Z" fill="white"/>
<path d="M41.0691 3.87915C31.712 12.5866 18.7488 19.4293 4.49647 23.1601L4.35846 55.0639C4.29359 69.6622 10.0169 82.8675 21.3516 94.3159C28.8042 101.839 36.6376 106.503 40.6137 108.595L41.1574 108.315V3.95335L41.0691 3.87915Z" fill="#80B2FF"/>
<path d="M41.1519 3.95337V108.318C45.2922 106.135 52.7985 101.626 59.9944 94.4909C71.4354 83.1517 77.2691 69.9926 77.3326 55.3944L77.4706 23.4905C63.2928 19.6435 50.4247 12.7154 41.1519 3.95337Z" fill="#4D93FF"/>
<path d="M69.713 35.9314C58.8613 37.6295 44.0832 47.6696 34.7606 59.7424C33.4523 54.049 27.5841 48.8525 24.5106 47.7172L15.2046 57.2044C21.0148 59.8642 27.3646 67.3845 28.2065 75.0882L37.5029 76.5511C41.4223 68.699 51.544 49.9151 71.6796 39.8162C71.2905 38.2763 69.869 36.1512 69.713 35.9314Z" fill="#0046B3"/>
</g>
<defs>
<clipPath id="clip0_21_949">
<rect width="82" height="111" fill="white"/>
</clipPath>
</defs>
</svg>
