<svg width="83" height="111" viewBox="0 0 83 111" fill="none" xmlns="http://www.w3.org/2000/svg">
<g clip-path="url(#clip0_21_941)">
<path d="M41.6521 0C32.4645 9.86234 17.8051 17.9454 2.11901 21.3892C2.11901 22.4391 2.0883 28.2571 1.96956 55.0695C1.80892 90.8386 35.7752 108.318 41.0515 111C46.1614 108.643 80.5581 91.1913 80.7173 55.4237C80.8375 28.6113 80.864 22.7933 80.8682 21.7433C65.2086 18.1582 50.7517 9.94494 41.6521 0Z" fill="white"/>
<path d="M41.5698 3.87915C32.0986 12.5866 18.9772 19.4307 4.55113 23.1601L4.41144 55.0639C4.34578 69.6622 10.1388 82.8675 21.6118 94.3173C29.1553 101.839 37.0842 106.505 41.1088 108.596C41.282 108.508 41.472 108.41 41.6578 108.316V3.95335L41.5698 3.87915Z" fill="#80B2FF"/>
<path d="M41.6523 3.95337V108.318C45.8431 106.137 53.4424 101.628 60.726 94.4923C72.3066 83.1531 78.2114 69.994 78.2757 55.3944L78.4154 23.4905C64.0647 19.6435 51.0397 12.7098 41.6523 3.95337Z" fill="#4D93FF"/>
<path d="M23.4181 45.5278L23.2407 72.4494C23.2212 75.4466 59.913 75.6874 59.9325 72.6902L60.1113 45.7686L23.4181 45.5278ZM43.5256 59.9567L43.4753 67.5876C43.4712 68.079 43.2736 68.549 42.9253 68.8951C42.5771 69.2413 42.1064 69.4354 41.616 69.4354C41.1227 69.4325 40.6507 69.2336 40.3035 68.8825C39.9563 68.5314 39.7621 68.0567 39.7636 67.5624L39.8139 59.9146C39.0213 59.5548 38.3493 58.9733 37.8784 58.24C37.4076 57.5067 37.1581 56.6527 37.1598 55.7808C37.1663 55.1858 37.2898 54.598 37.523 54.0509C37.7563 53.5038 38.0948 53.0081 38.5192 52.5921C38.9437 52.1761 39.4457 51.8481 39.9967 51.6265C40.5477 51.405 41.1369 51.2944 41.7305 51.301C42.3233 51.302 42.91 51.42 43.4571 51.6485C44.0043 51.877 44.501 52.2115 44.919 52.6327C45.337 53.0539 45.6679 53.5536 45.8929 54.1031C46.1179 54.6527 46.2324 55.2413 46.23 55.8353C46.2276 56.7113 45.9705 57.5677 45.4902 58.2996C45.0099 59.0315 44.3272 59.6073 43.5256 59.9567V59.9567Z" fill="#0046B3"/>
<path d="M41.8911 26.8207C39.6806 26.8044 37.4934 27.2736 35.4833 28.1953C33.4731 29.117 31.6889 30.4689 30.2561 32.1558L33.0583 34.586C34.1397 33.3037 35.4892 32.2753 37.0112 31.5737C38.5333 30.8721 40.1907 30.5146 41.866 30.5263C48.1619 30.5683 53.2509 35.706 53.209 41.9929L53.1979 43.8058L56.9109 43.831L56.9235 42.0181C56.978 33.6915 50.235 26.8753 41.8911 26.8207Z" fill="#0046B3"/>
</g>
<defs>
<clipPath id="clip0_21_941">
<rect width="83" height="111" fill="white"/>
</clipPath>
</defs>
</svg>
